<?xml version="1.0" standalone="no"?>
<!DOCTYPE svg PUBLIC "-//W3C//DTD SVG 20010904//EN"
 "http://www.w3.org/TR/2001/REC-SVG-20010904/DTD/svg10.dtd">
<svg version="1.0" xmlns="http://www.w3.org/2000/svg"
 width="200.000000pt" height="200.000000pt" viewBox="0 0 200.000000 200.000000"
 preserveAspectRatio="xMidYMid meet">
<metadata>
Created by potrace 1.11, written by Peter Selinger 2001-2013
</metadata>
<g transform="translate(0.000000,200.000000) scale(0.100000,-0.100000)"
fill="#000000" stroke="none">
<path d="M1394 1622 c-9 -6 -176 -210 -418 -512 -33 -41 -63 -77 -67 -80 -27
-22 -31 -85 -5 -102 27 -18 49 1 156 135 63 78 117 144 120 147 14 13 248 308
262 330 30 48 -6 111 -48 82z"/>
<path d="M1806 1588 c-19 -24 -220 -272 -447 -553 -226 -280 -416 -515 -423
-522 -8 -9 -48 35 -171 187 -122 154 -164 200 -182 200 -23 0 -43 -26 -43 -56
0 -13 145 -205 205 -270 5 -6 24 -29 40 -50 79 -101 127 -154 140 -154 20 0
39 23 292 336 275 341 271 337 374 463 330 408 331 408 293 445 -24 25 -40 19
-78 -26z"/>
<path d="M115 880 c-8 -9 -15 -26 -15 -37 0 -17 55 -96 98 -141 7 -8 25 -30
40 -50 15 -21 29 -39 32 -42 4 -3 44 -52 90 -110 100 -126 104 -130 124 -130
24 0 48 43 39 68 -5 12 -65 81 -133 153 -282 297 -270 283 -249 291 23 9 24
15 4 15 -8 0 -22 -8 -30 -17z"/>
</g>
</svg>
